<svg width="100%" height="100%" viewBox="0 0 16 16" fill="none" xmlns="http://www.w3.org/2000/svg">
  <path d="M14.0002 9.5332C13.8234 9.5332 13.6538 9.60344 13.5288 9.72847C13.4037 9.85349 13.3335 10.0231 13.3335 10.1999V12.8665C13.3335 13.0433 13.2633 13.2129 13.1382 13.3379C13.0132 13.463 12.8436 13.5332 12.6668 13.5332H3.3335C3.15669 13.5332 2.98712 13.463 2.86209 13.3379C2.73707 13.2129 2.66683 13.0433 2.66683 12.8665V10.1999C2.66683 10.0231 2.59659 9.85349 2.47157 9.72847C2.34654 9.60344 2.17697 9.5332 2.00016 9.5332C1.82335 9.5332 1.65378 9.60344 1.52876 9.72847C1.40373 9.85349 1.3335 10.0231 1.3335 10.1999V12.8665C1.3335 13.397 1.54421 13.9057 1.91928 14.2808C2.29436 14.6558 2.80306 14.8665 3.3335 14.8665H12.6668C13.1973 14.8665 13.706 14.6558 14.081 14.2808C14.4561 13.9057 14.6668 13.397 14.6668 12.8665V10.1999C14.6668 10.0231 14.5966 9.85349 14.4716 9.72847C14.3465 9.60344 14.177 9.5332 14.0002 9.5332ZM7.52683 10.6732C7.59023 10.7339 7.665 10.7815 7.74683 10.8132C7.82663 10.8485 7.91292 10.8667 8.00016 10.8667C8.08741 10.8667 8.1737 10.8485 8.2535 10.8132C8.33533 10.7815 8.41009 10.7339 8.4735 10.6732L11.1402 8.00654C11.2657 7.881 11.3362 7.71074 11.3362 7.5332C11.3362 7.35567 11.2657 7.18541 11.1402 7.05987C11.0146 6.93433 10.8444 6.86381 10.6668 6.86381C10.4893 6.86381 10.319 6.93433 10.1935 7.05987L8.66683 8.5932V2.19987C8.66683 2.02306 8.59659 1.85349 8.47157 1.72847C8.34654 1.60344 8.17697 1.5332 8.00016 1.5332C7.82335 1.5332 7.65378 1.60344 7.52876 1.72847C7.40373 1.85349 7.3335 2.02306 7.3335 2.19987V8.5932L5.80683 7.05987C5.74467 6.99771 5.67088 6.9484 5.58966 6.91476C5.50845 6.88112 5.4214 6.86381 5.3335 6.86381C5.24559 6.86381 5.15854 6.88112 5.07733 6.91476C4.99612 6.9484 4.92232 6.99771 4.86016 7.05987C4.798 7.12203 4.7487 7.19582 4.71506 7.27704C4.68142 7.35825 4.6641 7.4453 4.6641 7.5332C4.6641 7.62111 4.68142 7.70816 4.71506 7.78937C4.7487 7.87058 4.798 7.94438 4.86016 8.00654L7.52683 10.6732Z" />
</svg>
